<svg xmlns="http://www.w3.org/2000/svg" viewBox="0 0 96 96"><path d="M11 88Q50 90 85 86" fill="none" stroke="#c9d1e6" stroke-width="5" stroke-linecap="round"/><g stroke-linecap="round" stroke-linejoin="round"><circle cx="20" cy="72" r="12" fill="#1f2a44"/><circle cx="20" cy="72" r="4.5" fill="#c9d1e6"/><circle cx="76" cy="72" r="12" fill="#1f2a44"/><circle cx="76" cy="72" r="4.5" fill="#c9d1e6"/><path d="M76 72L65 45M20 72L40 64" fill="none" stroke="#1f2a44" stroke-width="5"/><rect x="36" y="58" width="20" height="13" rx="4" fill="#c9d1e6" stroke="#1f2a44" stroke-width="4"/><path d="M13 60Q12 52 20 52H32L37 47H55Q62 47 60 53L57 60H22Q13 61 13 60Z" fill="#2f6feb" stroke="#1f2a44" stroke-width="4"/><circle cx="69" cy="55" r="5" fill="#ffc21a" stroke="#1f2a44" stroke-width="3"/><path d="M31 46L51 52L46 68" fill="none" stroke="#1f2a44" stroke-width="11"/><path d="M31 46L51 52L46 68" fill="none" stroke="#0c9a8a" stroke-width="5"/><path d="M31 46L45 31" fill="none" stroke="#1f2a44" stroke-width="17"/><path d="M31 46L45 31" fill="none" stroke="#ffc21a" stroke-width="9"/><path d="M45 32L63 43" fill="none" stroke="#1f2a44" stroke-width="11"/><path d="M45 32L63 43" fill="none" stroke="#ffc21a" stroke-width="5"/><path d="M61 42H70" fill="none" stroke="#1f2a44" stroke-width="5"/><circle cx="52" cy="20" r="9.5" fill="#e5484d" stroke="#1f2a44" stroke-width="4"/><rect x="52" y="15" width="8" height="7" rx="3" fill="#ffffff"/></g></svg>
