<svg xmlns="http://www.w3.org/2000/svg" viewBox="0 0 96 96"><path d="M4 50V84Q26 76 48 88Q70 76 92 84V50Z" fill="#2f6feb" stroke="#1f2a44" stroke-width="4" stroke-linejoin="round"/><path d="M8 46Q28 42 48 54Q68 42 88 46V76Q68 72 48 82Q28 72 8 76Z" fill="#ffffff" stroke="#1f2a44" stroke-width="4" stroke-linejoin="round"/><path d="M13 56Q20 54 27 56M13 64Q20 62 27 64M69 56Q76 54 83 56M69 64Q76 62 83 64" fill="none" stroke="#8b96b5" stroke-width="3" stroke-linecap="round"/><polygon points="24,78 72,78 55,12 41,12" fill="#1f2a44" stroke="#1f2a44" stroke-width="4" stroke-linejoin="round"/><g fill="#ffffff"><polygon points="45,72 51,72 50.3,60 45.7,60"/><polygon points="46,52 50,52 49.6,42 46.4,42"/><polygon points="46.8,34 49.2,34 48.9,26 47.1,26"/></g></svg>
