<svg xmlns="http://www.w3.org/2000/svg" viewBox="0 0 96 96"><path d="M8 52H88V82Q88 88 82 88H14Q8 88 8 82Z" fill="#1f2a44"/><path d="M14 83H82" fill="none" stroke="#c9d1e6" stroke-width="3" stroke-linecap="round" stroke-dasharray="6 8"/><rect x="45" y="38" width="6" height="12" fill="#8b96b5"/><rect x="10" y="48" width="76" height="9" rx="4" fill="#8b96b5"/><g fill="#e5484d"><rect x="10" y="48" width="10" height="9"/><rect x="30" y="48" width="10" height="9"/></g><g fill="#ffffff"><rect x="20" y="48" width="10" height="9"/><rect x="40" y="48" width="10" height="9"/></g><rect x="10" y="48" width="76" height="9" rx="4" fill="none" stroke="#1f2a44" stroke-width="4" stroke-linejoin="round"/><rect x="34" y="10" width="28" height="28" rx="6" fill="#2f6feb" stroke="#1f2a44" stroke-width="4" stroke-linejoin="round"/><path d="M43 31V17H48.5Q54.5 17 54.5 22.5Q54.5 28 48.5 28H43" fill="none" stroke="#ffffff" stroke-width="5" stroke-linecap="round" stroke-linejoin="round"/><g transform="translate(67 69)"><rect x="-18" y="-7" width="36" height="14" rx="6" fill="#f5871f"/><rect x="5" y="-5" width="7" height="10" rx="2" fill="#c9d1e6"/><rect x="-14" y="-4.5" width="4" height="9" rx="1.5" fill="#c9d1e6"/></g></svg>
