<svg xmlns="http://www.w3.org/2000/svg" viewBox="0 0 96 96"><path d="M4 50V84Q26 76 48 88Q70 76 92 84V50Z" fill="#2f6feb" stroke="#1f2a44" stroke-width="4" stroke-linejoin="round"/><path d="M8 46Q28 42 48 54Q68 42 88 46V76Q68 72 48 82Q28 72 8 76Z" fill="#ffffff" stroke="#1f2a44" stroke-width="4" stroke-linejoin="round"/><path d="M13 58Q20 56 27 58M13 66Q20 64 27 66M69 58Q76 56 83 58M69 66Q76 64 83 66" fill="none" stroke="#8b96b5" stroke-width="3" stroke-linecap="round"/><path d="M27 72C36 56 50 46 51 14H63C61 40 66 56 70 72Z" fill="#1f2a44" stroke="#1f2a44" stroke-width="4" stroke-linejoin="round"/><path d="M48 70C50 56 56 46 57 18" fill="none" stroke="#ffffff" stroke-width="4" stroke-dasharray="8 8"/></svg>
