<svg xmlns="http://www.w3.org/2000/svg" viewBox="0 0 96 96"><path d="M10 30Q10 12 28 12H34V48H28Q10 48 10 30Z" fill="#ffffff" stroke="#1f2a44" stroke-width="4" stroke-linejoin="round"/><circle cx="26" cy="30" r="7" fill="#ffc21a"/><path d="M42 20L72 11M42 30H80M42 40L72 49" fill="none" stroke="#ffc21a" stroke-width="5" stroke-linecap="round"/><polygon points="10,66 25,66 25,58 41,72 25,86 25,78 10,78" fill="#f5871f" stroke="#1f2a44" stroke-width="4" stroke-linejoin="round"/><path d="M52 66H58L69 58V86L58 78H52Z" fill="#2f6feb" stroke="#1f2a44" stroke-width="4" stroke-linejoin="round"/><path d="M75 64Q80 72 75 80M79 58Q88 72 79 86" fill="none" stroke="#1f2a44" stroke-width="4" stroke-linecap="round"/></svg>
