<svg xmlns="http://www.w3.org/2000/svg" viewBox="0 0 96 96"><path d="M32 10H64V32H86V64H64V86H32V64H10V32H32Z" fill="#1f2a44" stroke="#1f2a44" stroke-width="4" stroke-linejoin="round"/><path d="M50 65H62M65 34V46" fill="none" stroke="#e5484d" stroke-width="3.5" stroke-linecap="round"/><path d="M40 33V49" fill="none" stroke="#1fa971" stroke-width="5.5" stroke-linecap="round"/><polygon points="32,48 48,48 40,60" fill="#1fa971" stroke="#1fa971" stroke-width="2" stroke-linejoin="round"/><g transform="translate(40 20) rotate(180)"><rect x="-6" y="-9" width="12" height="18" rx="5" fill="#1fa971" stroke="#ffffff" stroke-width="3"/><rect x="-4" y="-6.5" width="8" height="4.5" rx="1.5" fill="#ffffff"/></g><g transform="translate(56 77)"><rect x="-6" y="-9" width="12" height="18" rx="5" fill="#f5871f"/><rect x="-4" y="-6.5" width="8" height="4.5" rx="1.5" fill="#c9d1e6"/><rect x="-4" y="3.5" width="8" height="3" rx="1" fill="#c9d1e6"/></g><g transform="translate(77 40) rotate(-90)"><rect x="-6" y="-9" width="12" height="18" rx="5" fill="#2f6feb"/><rect x="-4" y="-6.5" width="8" height="4.5" rx="1.5" fill="#c9d1e6"/><rect x="-4" y="3.5" width="8" height="3" rx="1" fill="#c9d1e6"/></g></svg>
