<svg xmlns="http://www.w3.org/2000/svg" viewBox="0 0 96 96"><circle cx="48" cy="37" r="26" fill="#ffffff" stroke="#e5484d" stroke-width="7"/><path d="M36 26H56L54 55H38Z" fill="#ffc21a" stroke="#1f2a44" stroke-width="4" stroke-linejoin="round"/><path d="M56 32H61Q65 32 65 37V42Q65 47 61 47H55" fill="none" stroke="#1f2a44" stroke-width="4" stroke-linecap="round" stroke-linejoin="round"/><path d="M34 27Q33 19 41 20Q45 15 51 20Q59 19 58 27Z" fill="#ffffff" stroke="#1f2a44" stroke-width="4" stroke-linejoin="round"/><path d="M31 20L65 54" stroke="#e5484d" stroke-width="7"/><g fill="#2f6feb" stroke="#1f2a44" stroke-width="4" stroke-linejoin="round"><rect x="30" y="72" width="56" height="8" rx="4"/><rect x="63" y="78" width="6" height="7" rx="2"/><rect x="75" y="78" width="6" height="7" rx="2"/><circle cx="22" cy="76" r="9"/></g><circle cx="22" cy="76" r="3" fill="#ffffff"/></svg>
