<svg xmlns="http://www.w3.org/2000/svg" viewBox="0 0 96 96"><path d="M8 86C8 48 30 14 50 14S88 48 88 86Z" fill="#1fa971" stroke="#1fa971" stroke-width="4" stroke-linejoin="round"/><path d="M52 80V68C52 58 68 62 66 52 64 42 38 48 40 38 41 32 48 32 50 26" fill="none" stroke="#1f2a44" stroke-width="15" stroke-linecap="round" stroke-linejoin="round"/><path d="M52 80V68C52 58 68 62 66 52 64 42 38 48 40 38 41 32 48 32 50 26" fill="none" stroke="#fff" stroke-width="3" stroke-linecap="round" stroke-dasharray="1 8"/><rect x="54" y="64" width="9" height="15" rx="3" fill="#ffc21a"/><rect x="55.5" y="66" width="6" height="4" rx="1" fill="#1f2a44"/><path d="M28 54 22 70M15 63.5 22 70 28 62" fill="none" stroke="#fff" stroke-width="4.5" stroke-linecap="round" stroke-linejoin="round"/></svg>
