<svg xmlns="http://www.w3.org/2000/svg" viewBox="0 0 96 96"><path d="M8 86Q58 88 88 66" fill="none" stroke="#c9d1e6" stroke-width="6" stroke-linecap="round"/><g transform="rotate(-7 46 84)" stroke-linecap="round" stroke-linejoin="round"><path d="M22 70L40 62M62 40L72 70M57 36H65" fill="none" stroke="#1f2a44" stroke-width="5"/><circle cx="22" cy="70" r="14" fill="#1f2a44"/><circle cx="22" cy="70" r="5.5" fill="#c9d1e6"/><circle cx="72" cy="70" r="14" fill="#1f2a44"/><circle cx="72" cy="70" r="5.5" fill="#c9d1e6"/><path d="M32 54H56L54 68H38Z" fill="#8b96b5" stroke="#1f2a44" stroke-width="4"/><path d="M14 52Q12 45 20 45H34L40 39H56Q63 39 62 46L58 56H26Q16 56 14 52Z" fill="#2f6feb" stroke="#1f2a44" stroke-width="4"/><path d="M18 45H34" stroke="#1f2a44" stroke-width="5"/><circle cx="70" cy="47" r="5.5" fill="#ffc21a" stroke="#1f2a44" stroke-width="3"/></g><path d="M8 32Q8 10 26 10Q42 10 42 28V34H14Q8 34 8 32Z" fill="#e5484d" stroke="#1f2a44" stroke-width="4" stroke-linejoin="round"/><path d="M26 19H42V27H26Z" fill="#ffffff" stroke="#1f2a44" stroke-width="3" stroke-linejoin="round"/><g stroke="#1f2a44" stroke-width="3" stroke-linejoin="round"><rect x="66" y="10" width="20" height="20" rx="6" fill="#f5871f"/><rect x="69" y="30" width="14" height="7" rx="2" fill="#1f2a44"/><path d="M71.5 10V19M76 10V19M80.5 10V19" fill="none"/></g></svg>
