<svg xmlns="http://www.w3.org/2000/svg" viewBox="0 0 96 96"><polygon points="28,58 68,58 86,84 10,84" fill="#1f2a44" stroke="#1f2a44" stroke-width="4" stroke-linejoin="round"/><g fill="#ffffff"><polygon points="30.4,62 35,62 27.6,80 19.6,80"/><polygon points="40.2,62 44.8,62 43.6,80 35.6,80"/><polygon points="50.7,62 55.3,62 59.5,80 51.5,80"/><polygon points="61,62 65.6,62 75.4,80 67.4,80"/></g><g fill="none" stroke-linecap="round" stroke-linejoin="round"><g stroke="#1f2a44"><path d="M34 52 22 62 14 58M34 52 46 58 47 68" stroke-width="10"/><path d="M38 33 34 52" stroke-width="18"/><path d="M41 38 52 40M35 38 25 34" stroke-width="9"/></g><path d="M34 52 22 62 14 58M34 52 46 58 47 68" stroke="#2f6feb" stroke-width="6"/><path d="M38 33 34 52" stroke="#f5871f" stroke-width="14"/><path d="M41 38 52 40M35 38 25 34" stroke="#ffd2a8" stroke-width="5"/></g><circle cx="39" cy="20" r="9" fill="#ffd2a8" stroke="#1f2a44" stroke-width="4"/><circle cx="71" cy="38" r="10" fill="#ffffff" stroke="#1f2a44" stroke-width="4"/><polygon points="71,33.5 75.3,36.6 73.7,41.7 68.3,41.7 66.7,36.6" fill="#1f2a44" stroke="#1f2a44" stroke-width="1" stroke-linejoin="round"/></svg>
